<?xml version="1.0" encoding="UTF-8"?>
<svg width="427px" height="50px" viewBox="0 0 427 50" version="1.1" xmlns="http://www.w3.org/2000/svg" xmlns:xlink="http://www.w3.org/1999/xlink">
    <!-- Generator: Sketch 52.6 (67491) - http://www.bohemiancoding.com/sketch -->
    <title>table-mountain-silhouette-f35580-original</title>
    <desc>Created with Sketch.</desc>
    <g id="Page-1" stroke="none" stroke-width="1" fill="none" fill-rule="evenodd">
        <g id="table-mountain-silhouette-f35580-original" transform="translate(2.000000, 2.000000)" fill="#1C2933" stroke="#1C2933" stroke-width="3">
            <path d="M412.218457,37.1665194 C412.218457,37.1665194 404.865527,35.5180815 401.85,35.6829253 C401.85,35.6829253 399.701953,35.8065581 399.123633,34.4878078 C399.123633,34.4878078 396.975586,32.756948 395.529785,32.8805809 L393.670898,30.5727678 C393.670898,30.5727678 392.101172,28.2649548 390.077051,29.5424941 L388.05293,30.2430802 C388.05293,30.2430802 381.980566,26.492884 379.83252,25.9159307 C379.83252,25.9159307 376.651758,24.3499147 375.784277,24.3499147 L370.455469,22.4954221 L365.994141,20.8057733 L363.102539,17.7561631 L362.235059,16.31378 L360.789258,14.8713968 L359.508691,13.4290137 L358.062891,13.4290137 L355.749609,14.2532326 L351.990527,16.8083113 L349.388086,19.6518667 L347.942285,20.8057733 L346.496484,22.2069455 L342.613477,21.6712032 L340.75459,20.8881952 L338.069531,20.8881952 L336.582422,20.8881952 L334.723535,21.6712032 L334.145215,20.8057733 L330.386133,19.9815543 L325.635645,20.8881952 L322.661426,20.8881952 L320.595996,22.1657345 L318.447949,20.8469842 L317.002148,19.6518667 L314.399707,17.9210069 L311.38418,16.6022566 L308.492578,15.8604596 L305.477051,16.5610457 L303.74209,17.1379989 L297.834961,16.8495223 L295.976074,18.0034288 L294.406348,17.1379989 L292.671387,17.5913194 L290.23418,16.7258895 L288.581836,16.7258895 L287.673047,15.8192486 L285.81416,14.4592873 L285.23584,11.4508882 L284.079199,10.049716 L282.137695,10.049716 L280.072266,10.049716 L279.246094,8.27764522 L277.676367,7.57705911 L275.487012,7.57705911 L273.793359,6.9588949 L271.934473,6.34073069 L268.836328,6.34073069 L268.010156,6.34073069 L266.15127,4.73350373 L265.572949,3.24990962 L264.994629,0.653619932 L263.548828,0.0766666667 L238.391895,0.0766666667 L236.863477,0.488776142 L233.806641,0.488776142 L229.923633,0.488776142 L218.357227,0.488776142 L216.911426,1.06572941 L214.019824,0.900885617 L210.425977,0.900885617 L194.563477,0.365143299 L192.828516,0.900885617 L178.824902,0.736041827 L163.664648,1.31299509 L159.20332,1.43662793 L157.344434,2.0135812 L156.187793,3.45596436 L156.063867,4.89834752 L154.907227,6.75284016 L154.618066,8.77217659 L153.62666,9.4727627 L152.056934,10.049716 L150.487207,9.18428606 L149.206641,8.03037953 L147.926074,7.90674669 L142.308105,7.20616058 L139.870898,7.32979343 L138.879492,5.76377742 L136.442285,4.03291763 L133.137598,3.04385489 L130.700391,2.05479215 L126.528223,1.47783888 L122.19082,0.488776142 L120.166699,1.06572941 L119.175293,2.50811257 L117.729492,4.23897236 L116.862012,6.67041827 L116.985938,7.94795764 L115.705371,8.81338754 L113.97041,8.23643427 L111.078809,7.94795764 L108.641602,8.5249109 L106.493555,9.51397364 L103.023633,11.3684663 L100.875586,12.0690524 L96.4142578,13.5114356 L92.8204102,14.0883888 L90.6723633,14.9538187 L89.3917969,16.1077252 L86.7893555,19.1161244 L86.0871094,19.8167105 L85.6740234,20.6821404 L84.9717773,21.8360469 L83.8151367,23.2784301 L79.9321289,25.1329227 L76.9166016,25.2565556 L75.1816406,25.8335089 L73.1575195,27.275892 L67.8287109,28.841908 L65.3915039,29.1303847 L62.3759766,30.8612444 L60.2279297,31.1497211 L57.5015625,31.4381977 L54.3208008,32.8805809 L51.7183594,34.322964 L48.9919922,34.8999173 L47.4222656,34.9823392 L47.380957,34.9823392 L45.6873047,35.0647611 L45.6873047,35.1883939 L43.7044922,35.3944487 L38.334375,35.3944487 L36.8472656,35.3944487 L34.2448242,36.8780428 L32.0967773,37.496207 L29.9074219,37.496207 L23.3393555,38.3204259 L21.8522461,38.3204259 L20.8608398,39.3919106 L20.4890625,40.1337076 L17.6800781,40.3397624 L12.0621094,40.9167156 L9.17050781,41.6173017 L5.12226563,42.3178878 L3.84169922,42.6475754 L2.85029297,43.7190601 L2.06542969,43.7190601 L0,45.0378104 L0,45.8208184 L423,45.8208184 C423,45.9032403 420.851953,39.3506996 412.218457,37.1665194 Z" id="Path"></path>
        </g>
    </g>
</svg>